:version 1.10
:name ASF
:units
  mass 1
  length 1
  angle deg
:documentation
  ASF file generated by Kaydara
:root
  axis xyz
  order  tx ty tz rx ry rz
  position 0 0 0
  orientation 0 0 0
:bonedata
  begin
    id 1
    name RightUpLegDummy
    direction -0.718183 -0.695806 0.00816078
    length 4.904
    axis 0 0 0 xyz
  end
  begin
    id 2
    name RightUpLeg
    direction 3.53373e-006 -0.995788 0.0916898
    length 17.4976
    axis -3.49089 -0.000906625 0.000286804 xyz
    dof rx ry rz
  end
  begin
    id 3
    name RightLeg
    direction 0.00371092 -0.995096 -0.0988419
    length 16.5821
    axis 3.68512 0.0193738 -0.131023 xyz
    dof rx ry rz
  end
  begin
    id 4
    name RightFoot
    direction 0.00079151 -0.46099 0.887405
    length 3.77069
    axis 4.81691e-005 -0.120479 -0.188788 xyz
    dof rx ry rz
  end
  begin
    id 5
    name RightToes
    direction 0 0 0
    length 0
    axis 0 0 0 xyz
    dof rx ry rz
  end
  begin
    id 6
    name SpineDummy
    direction 8.3039e-015 1 4.57515e-016
    length 4.6813
    axis 0 0 0 xyz
  end
  begin
    id 7
    name Spine
    direction -3.15643e-008 0.999988 0.00495137
    length 10.1015
    axis -0.001389 0.000121418 2.40972e-006 xyz
    dof rx ry rz
  end
  begin
    id 8
    name Spine1
    direction 0 0 0
    length 0
    axis -0.001389 0.000121451 1.30017e-006 xyz
    dof rx ry rz
  end
  begin
    id 9
    name HEadDummy
    direction -1.99912e-008 0.999999 0.00127422
    length 3.43865
    axis -0.001389 0.000121451 1.30017e-006 xyz
  end
  begin
    id 10
    name HEad
    direction 0 0 0
    length 0
    axis 0 0 0 xyz
    dof rx ry rz
  end
  begin
    id 11
    name LeftShoulder1Dummy
    direction 0.998891 -0.0402509 -0.0244456
    length 3.5433
    axis -0.001389 0.000121451 1.30017e-006 xyz
  end
  begin
    id 12
    name LeftShoulder1
    direction 0.99951 -0.000327763 0.0313091
    length 4.05031
    axis -0.001389 0.000121451 1.30017e-006 xyz
    dof rx ry rz
  end
  begin
    id 13
    name LeftArm
    direction 0.998561 -0.00100056 -0.0536182
    length 10.3537
    axis -23.1894 0.134784 0.967509 xyz
    dof rx ry rz
  end
  begin
    id 14
    name LeftForeArm
    direction 0.998903 0.00866432 0.046012
    length 8.70632
    axis -9.91835 -0.06569 -0.177794 xyz
    dof rx ry rz
  end
  begin
    id 15
    name LeftHand
    direction 0 0 0
    length 0
    axis 0 0 0 xyz
    dof rx ry rz
  end
  begin
    id 16
    name RightShoulderDummy
    direction -0.998891 -0.0402509 -0.0244414
    length 3.5433
    axis -0.001389 0.000121451 1.30017e-006 xyz
  end
  begin
    id 17
    name RightShoulder
    direction -0.99951 -0.000327807 0.0313133
    length 4.05031
    axis 0.215806 0.000203643 -0.0068026 xyz
    dof rx ry rz
  end
  begin
    id 18
    name RightArm
    direction -0.998573 -0.000999564 -0.053403
    length 10.3947
    axis -23.2009 -0.134239 -0.964101 xyz
    dof rx ry rz
  end
  begin
    id 19
    name RightForeArm
    direction -0.998898 0.00868028 0.0461306
    length 8.68355
    axis -9.92322 0.0658061 0.178868 xyz
    dof rx ry rz
  end
  begin
    id 20
    name RightHand
    direction 0 0 0
    length 0
    axis 0 0 0 xyz
    dof rx ry rz
  end
  begin
    id 21
    name LeftUpLegDummy
    direction 0.718183 -0.695806 0.00816078
    length 4.904
    axis 0 0 0 xyz
  end
  begin
    id 22
    name LeftUpLeg
    direction -6.81752e-006 -0.995793 0.0916337
    length 17.4976
    axis -3.48766 0.00143442 -0.000524262 xyz
    dof rx ry rz
  end
  begin
    id 23
    name LeftLeg
    direction -0.00601358 -0.995091 -0.0987824
    length 16.5821
    axis 3.68178 -0.00654042 -0.000285133 xyz
    dof rx ry rz
  end
  begin
    id 24
    name LeftFoot
    direction -0.00417578 -0.460984 0.887399
    length 3.77069
    axis 1.87233e-006 4.66016e-005 -8.6538e-006 xyz
    dof rx ry rz
  end
  begin
    id 25
    name LeftToes
    direction 0 0 0
    length 0
    axis 0 0 0 xyz
    dof rx ry rz
  end
:hierarchy
  begin
    root RightUpLegDummy SpineDummy LeftUpLegDummy
    RightUpLegDummy RightUpLeg
    RightUpLeg RightLeg
    RightLeg RightFoot
    RightFoot RightToes
    SpineDummy Spine
    Spine Spine1
    Spine1 HEadDummy LeftShoulder1Dummy RightShoulderDummy
    HEadDummy HEad
    LeftShoulder1Dummy LeftShoulder1
    LeftShoulder1 LeftArm
    LeftArm LeftForeArm
    LeftForeArm LeftHand
    RightShoulderDummy RightShoulder
    RightShoulder RightArm
    RightArm RightForeArm
    RightForeArm RightHand
    LeftUpLegDummy LeftUpLeg
    LeftUpLeg LeftLeg
    LeftLeg LeftFoot
    LeftFoot LeftToes
  end

:SAMPLES-PER-SECOND 30
:FULLY-SPECIFIED
:DEGREES
195
root  34.7567 39.5946 7.60251 12.5866 81.8615 20.995
RightUpLeg  -2.91221 -10.3411 -15.731
RightLeg  16.9224 -0.718346 -0.501414
RightFoot  -1.83089 -0.562101 6.59396
RightToes  0.000481921 0.542163 -0.142578
Spine  9.39719 0.00919587 3.27885
Spine1  12.3772 1.63673 -4.83717
HEad  21.1725 7.66558 -3.58294
LeftShoulder1  6.96157 -13.6254 -34.5837
LeftArm  -3.04022 -20.1348 -49.8658
LeftForeArm  -166.05 -57.0885 -166.51
LeftHand  -0.25398 0.0180481 5.50724
RightShoulder  5.62376 11.8046 30.7747
RightArm  4.08967 16.8009 63.4256
RightForeArm  -179.823 65.3674 159.704
RightHand  -0.0821044 0.553132 -1.66705
LeftUpLeg  1.20729 18.9699 2.85846
LeftLeg  18.8987 9.87208 3.69997
LeftFoot  -8.15317 0.127261 -2.81036
LeftToes  1.06244e-005 4.65869e-005 -8.65518e-006
196
root  34.8421 39.7369 7.51828 9.87794 80.5709 17.3149
RightUpLeg  -3.11829 -10.2217 -15.3428
RightLeg  14.6091 0.163254 -0.289401
RightFoot  -0.792445 -0.669885 7.18835
RightToes  0.000481921 0.542163 -0.142578
Spine  8.05103 -0.23554 3.81304
Spine1  12.2823 1.37338 -5.0123
HEad  22.2536 8.07903 -3.15706
LeftShoulder1  6.81843 -13.501 -34.0478
LeftArm  -1.95563 -19.9354 -49.9357
LeftForeArm  -163.969 -55.908 -167.25
LeftHand  -0.25398 0.0180481 5.50724
RightShoulder  5.33076 11.4435 29.6874
RightArm  4.44616 17.7741 63.3193
RightForeArm  -174.829 64.643 160.825
RightHand  0.117254 0.862392 2.0431
LeftUpLeg  1.38679 18.5323 3.05125
LeftLeg  17.2591 11.8008 2.8846
LeftFoot  -7.5356 0.146286 -3.04098
LeftToes  1.06244e-005 4.65869e-005 -8.65518e-006
197
root  34.8842 39.8385 7.44513 9.13792 79.3369 15.7192
RightUpLeg  -3.54606 -10.0033 -15.1429
RightLeg  12.8696 0.929855 -0.2019
RightFoot  0.0705 -0.75018 7.5042
RightToes  0.000481921 0.542163 -0.142578
Spine  7.60825 -0.356031 4.13274
Spine1  11.4009 1.20163 -5.10362
HEad  22.5967 8.13106 -2.80644
LeftShoulder1  6.79024 -13.4922 -33.9038
LeftArm  -1.36457 -20.535 -49.3955
LeftForeArm  -162.701 -54.8936 -167.818
LeftHand  -0.25398 0.0180481 5.50724
RightShoulder  5.02459 11.1368 28.3154
RightArm  3.58333 19.6652 63.2578
RightForeArm  -173.518 63.197 162.098
RightHand  0.216112 1.20404 3.68286
LeftUpLeg  1.49003 17.0279 3.00214
LeftLeg  15.8225 14.6513 1.94553
LeftFoot  -7.02682 0.161562 -3.17145
LeftToes  1.06244e-005 4.65869e-005 -8.65518e-006
198
root  34.861 39.8699 7.39051 9.37199 78.1582 15.4487
RightUpLeg  -4.2685 -9.74958 -15.1481
RightLeg  12.2698 1.63671 -0.145548
RightFoot  0.514645 -0.77676 7.50417
RightToes  0.000481921 0.542163 -0.142578
Spine  8.19332 -0.360551 3.89109
Spine1  10.0922 0.998377 -4.60807
HEad  22.2633 7.96504 -2.72969
LeftShoulder1  6.75382 -13.4625 -33.7603
LeftArm  -1.40656 -21.6504 -48.9369
LeftForeArm  -164.303 -54.7949 -167.748
LeftHand  -0.25398 0.0180481 5.50724
RightShoulder  4.83104 10.9948 27.2879
RightArm  1.97846 22.0952 62.9285
RightForeArm  -174.018 61.6097 163.184
RightHand  0.181733 0.0158313 3.95529
LeftUpLeg  1.45906 16.3825 2.82043
LeftLeg  15.1005 16.4912 1.31887
LeftFoot  -6.85675 0.161638 -3.0761
LeftToes  1.06244e-005 4.65869e-005 -8.65518e-006
199
root  34.7801 39.8424 7.34193 9.15625 77.3213 15.082
RightUpLeg  -5.04505 -9.29436 -15.0829
RightLeg  12.5535 1.88244 -0.153643
RightFoot  0.696974 -0.775902 7.39329
RightToes  0.000481921 0.542163 -0.142578
Spine  9.20584 -0.44542 3.51242
Spine1  9.28637 0.6766 -3.81958
HEad  21.321 7.81468 -2.83872
LeftShoulder1  6.66674 -13.466 -33.2436
LeftArm  -1.5752 -22.8768 -49.1226
LeftForeArm  -168.392 -55.3641 -167.188
LeftHand  -0.25398 0.0180481 5.50724
RightShoulder  4.82182 11.0499 27.0897
RightArm  0.267213 24.9494 61.848
RightForeArm  -172.92 60.2749 164.16
RightHand  0.15544 -1.42525 4.94265
LeftUpLeg  1.10891 17.4226 2.69812
LeftLeg  15.4278 16.3058 1.43146
LeftFoot  -6.99836 0.150764 -2.86549
LeftToes  1.06244e-005 4.65869e-005 -8.65518e-006
200
root  34.6891 39.8043 7.29119 8.18376 76.8072 14.2227
RightUpLeg  -5.46554 -8.69067 -14.8789
RightLeg  12.8787 1.79025 -0.235039
RightFoot  0.907985 -0.777054 7.28951
RightToes  0.000481921 0.542163 -0.142578
Spine  10.0192 -0.627538 3.39594
Spine1  9.4549 0.326165 -3.13758
HEad  20.1685 7.8573 -3.13944
LeftShoulder1  6.6378 -13.6297 -32.7005
LeftArm  -1.39928 -23.8261 -49.875
LeftForeArm  -171.705 -55.8999 -166.682
LeftHand  -0.25398 0.0180481 5.50724
RightShoulder  4.87858 11.1174 27.3331
RightArm  -1.08505 27.6889 60.8543
RightForeArm  -171.208 60.4576 164.179
RightHand  0.204327 -1.36494 6.23983
LeftUpLeg  0.773895 18.9062 2.69826
LeftLeg  16.1383 15.4019 1.95262
LeftFoot  -7.17859 0.142792 -2.71926
LeftToes  1.06244e-005 4.65869e-005 -8.65518e-006
201
root  34.652 39.8016 7.25358 7.30652 76.3592 13.4428
RightUpLeg  -5.49667 -8.50116 -14.7275
RightLeg  12.6703 2.07048 -0.235991
RightFoot  1.20808 -0.783883 7.19472
RightToes  0.000481921 0.542163 -0.142578
Spine  10.3154 -0.777463 3.37581
Spine1  10.0596 0.0242524 -2.53211
HEad  19.6058 8.13242 -3.62862
LeftShoulder1  6.70148 -13.7949 -32.6979
LeftArm  -0.790162 -24.0688 -50.8063
LeftForeArm  -171.642 -56.0614 -166.606
LeftHand  -0.25398 0.0180481 5.50724
RightShoulder  4.85291 11.0867 27.2236
RightArm  -1.65286 29.0666 60.9625
RightForeArm  -171.723 62.4949 162.763
RightHand  0.264052 -0.630459 6.61627
LeftUpLeg  0.800638 19.4163 2.78272
LeftLeg  16.3041 15.4017 2.12359
LeftFoot  -7.18923 0.141669 -2.6954
LeftToes  1.06244e-005 4.65869e-005 -8.65518e-006
202
root  34.6903 39.8329 7.23836 7.1304 75.9752 13.0941
RightUpLeg  -5.44821 -8.98611 -14.7427
RightLeg  12.0882 2.87128 -0.0498766
RightFoot  1.47585 -0.793331 7.14336
RightToes  0.000481921 0.542163 -0.142578
Spine  10.1391 -0.871712 3.27124
Spine1  10.3735 -0.24176 -1.97904
HEad  19.8776 8.43509 -3.98124
LeftShoulder1  6.76267 -13.7762 -33.0933
LeftArm  -0.181988 -23.5048 -51.6189
LeftForeArm  -170.34 -56.2 -166.637
LeftHand  -0.25398 0.0180481 5.50724
RightShoulder  4.81329 11.1062 26.8973
RightArm  -1.61653 28.4385 61.3325
RightForeArm  -174.034 64.3984 161.122
RightHand  0.262535 -0.960345 7.17992
LeftUpLeg  0.99231 18.9185 2.85347
LeftLeg  15.8539 16.3156 1.78352
LeftFoot  -7.09944 0.144822 -2.75883
LeftToes  1.06244e-005 4.65869e-005 -8.65518e-006
203
root  34.7575 39.8532 7.22929 7.2489 75.7663 12.8643
RightUpLeg  -5.58948 -9.4917 -14.7892
RightLeg  11.7438 3.48789 0.15741
RightFoot  1.56483 -0.806031 7.21119
RightToes  0.000481921 0.542163 -0.142578
Spine  9.93941 -0.971703 3.27628
Spine1  10.2525 -0.443609 -1.68265
HEad  20.2017 8.58339 -4.06936
LeftShoulder1  6.76539 -13.6797 -33.3276
LeftArm  0.0516262 -22.6496 -52.0529
LeftForeArm  -169.976 -56.3625 -166.583
LeftHand  -0.25398 0.0180481 5.50724
RightShoulder  4.87421 11.2358 27.0241
RightArm  -1.58682 26.7821 60.8108
RightForeArm  -174.961 64.4963 160.938
RightHand  0.227645 -2.18052 9.00059
LeftUpLeg  0.94867 18.5127 2.85012
LeftLeg  15.5204 16.9419 1.50063
LeftFoot  -7.15167 0.149445 -2.91246
LeftToes  1.06244e-005 4.65869e-005 -8.65518e-006
204
root  34.7829 39.8134 7.2184 7.25243 75.6522 12.5477
RightUpLeg  -6.1907 -9.19459 -14.6992
RightLeg  12.2838 3.25681 0.147473
RightFoot  1.24565 -0.807702 7.39129
RightToes  0.000481921 0.542163 -0.142578
Spine  10.2661 -1.03209 3.40547
Spine1  9.80422 -0.539222 -1.50238
HEad  19.731 8.75633 -4.45083
LeftShoulder1  6.73004 -13.6312 -33.2337
LeftArm  -0.370798 -22.1857 -51.8066
LeftForeArm  -169.781 -56.1825 -166.687
LeftHand  -0.25398 0.0180481 5.50724
RightShoulder  4.92233 11.1989 27.4497
RightArm  -2.15063 25.4834 59.784
RightForeArm  -173.33 63.3708 161.99
RightHand  0.201237 -3.045 11.2526
LeftUpLeg  0.300022 20.0146 2.73161
LeftLeg  16.1897 15.5245 1.95494
LeftFoot  -7.55022 0.14997 -3.1655
LeftToes  1.06244e-005 4.65869e-005 -8.65518e-006
205
root  34.7315 39.6804 7.22594 7.44086 75.9032 12.4119
RightUpLeg  -7.47495 -8.15177 -14.5518
RightLeg  14.2133 1.93066 -0.0358314
RightFoot  0.237496 -0.768259 7.58263
RightToes  0.000481921 0.542163 -0.142578
Spine  11.265 -1.06003 3.04316
Spine1  8.9538 -0.807997 -0.569967
HEad  18.4685 9.29848 -5.62774
LeftShoulder1  6.61047 -13.4919 -32.8533
LeftArm  -1.47883 -22.2466 -51.0986
LeftForeArm  -168.717 -55.5757 -167.063
LeftHand  -0.25398 0.0180481 5.50724
RightShoulder  4.80385 10.8364 27.4696
RightArm  -3.92626 24.763 58.2735
RightForeArm  -170.642 61.1353 163.781
RightHand  0.184041 -3.5875 14.1301
LeftUpLeg  -1.44738 23.1752 2.28065
LeftLeg  18.3466 11.9495 3.34753
LeftFoot  -8.31213 0.140565 -3.43362
LeftToes  1.06244e-005 4.65869e-005 -8.65518e-006
